<svg width="1920" height="579" viewBox="0 0 1920 579" fill="none" xmlns="http://www.w3.org/2000/svg">
<g id="Frame 1">
<g clip-path="url(#clip0)">
<g id="shape-3">
<path id="Vector 3" d="M0 366V579L1919.5 578.5V0L1883.5 82.5C1870 113.333 1825.8 191.5 1757 257.5C1671 340 1529.5 406.5 1386 444.5C1271.2 474.9 1069.17 497.833 982.5 505.5C889 514.667 670.8 525.9 546 497.5C390 462 320.5 402 209 382C119.8 366 32.5 364.667 0 366Z" fill="#AB60B8" fill-opacity="0.16" stroke="#AB60B8" stroke-opacity="0.16"/>
</g>
<g id="shape-2">
<g id="Vector 1">
<path d="M0 424.5C63.8333 417.333 226.3 413.4 365.5 455C539.5 507 540.5 534.5 741.5 544C942.5 553.5 1218 520 1288.5 509.5C1359 499 1528 463.5 1627 412.5C1726 361.5 1830.5 297 1875.5 208.5C1910.15 140.351 1919.17 119.856 1919.5 117.673V117.5C1919.51 117.531 1919.51 117.588 1919.5 117.673V579H0V424.5Z" fill="#AB60B7"/>
<path d="M0 424.5C63.8333 417.333 226.3 413.4 365.5 455C539.5 507 540.5 534.5 741.5 544C942.5 553.5 1218 520 1288.5 509.5C1359 499 1528 463.5 1627 412.5C1726 361.5 1830.5 297 1875.5 208.5C1911.5 137.7 1919.83 118.333 1919.5 117.5V579H0V424.5Z" stroke="#AB60B7"/>
</g>
</g>
<g id="shape-1">
<g id="Vector 2">
<path d="M0 579V481.5C32.1667 484.667 113.2 496.5 180 518.5C263.5 546 347.5 579 440 579H1037C1093.17 574 1234.7 559.8 1351.5 543C1497.5 522 1609 480.5 1724 432C1816 393.2 1892.67 325.833 1919.5 297V579H1037H440H0Z" fill="#9A56A5"/>
<path d="M440 579C347.5 579 263.5 546 180 518.5C113.2 496.5 32.1667 484.667 0 481.5V579H440ZM440 579C477.117 579 732.903 579 1037 579M1037 579C1339.18 579 1689.06 579 1919.5 579V297C1892.67 325.833 1816 393.2 1724 432C1609 480.5 1497.5 522 1351.5 543C1234.7 559.8 1093.17 574 1037 579Z" stroke="#9A56A5"/>
</g>
</g>
</g>
</g>
<defs>
<clipPath id="clip0">
<rect width="1920" height="579" fill="white"/>
</clipPath>
</defs>
</svg>
